<?xml version="1.0" encoding="UTF-8" standalone="no"?>
<!-- Creator: CorelDRAW X6 -->

<svg
   xmlns:dc="http://purl.org/dc/elements/1.1/"
   xmlns:cc="http://creativecommons.org/ns#"
   xmlns:rdf="http://www.w3.org/1999/02/22-rdf-syntax-ns#"
   xmlns:svg="http://www.w3.org/2000/svg"
   xmlns="http://www.w3.org/2000/svg"
   xmlns:sodipodi="http://sodipodi.sourceforge.net/DTD/sodipodi-0.dtd"
   xmlns:inkscape="http://www.inkscape.org/namespaces/inkscape"
   xml:space="preserve"
   width="3.7776489in"
   height="3.5939155in"
   version="1.1"
   style="clip-rule:evenodd;fill-rule:evenodd;image-rendering:optimizeQuality;shape-rendering:geometricPrecision;text-rendering:geometricPrecision"
   viewBox="0 0 10002.199 9515.0105"
   id="svg2"
   inkscape:version="0.91 r13725"
   sodipodi:docname="logo_foreground.svg"><metadata
     id="metadata22"><rdf:RDF><cc:Work
         rdf:about=""><dc:format>image/svg+xml</dc:format><dc:type
           rdf:resource="http://purl.org/dc/dcmitype/StillImage" /><dc:title /></cc:Work></rdf:RDF></metadata><sodipodi:namedview
     pagecolor="#ffffff"
     bordercolor="#666666"
     borderopacity="1"
     objecttolerance="10"
     gridtolerance="10"
     guidetolerance="10"
     inkscape:pageopacity="0"
     inkscape:pageshadow="2"
     inkscape:window-width="1280"
     inkscape:window-height="746"
     id="namedview20"
     showgrid="false"
     inkscape:zoom="0.9675847"
     inkscape:cx="479.98095"
     inkscape:cy="56.923164"
     inkscape:window-x="0"
     inkscape:window-y="0"
     inkscape:window-maximized="1"
     inkscape:current-layer="svg2"
     fit-margin-top="0"
     fit-margin-left="0"
     fit-margin-right="0"
     fit-margin-bottom="0" /><defs
     id="defs4"><style
       type="text/css"
       id="style6"><![CDATA[
    .str1 {stroke:#3E4095;stroke-width:18.3868}
    .str0 {stroke:#E6E7E8;stroke-width:18.3868}
    .str2 {stroke:#ED3237;stroke-width:18.3868}
    .fil1 {fill:#3E4095}
    .fil0 {fill:#E6E7E8}
    .fil2 {fill:#ED3237}
   ]]></style></defs><rect
     style="fill:none;fill-rule:evenodd;stroke:none;stroke-width:29.41923523px;stroke-linecap:butt;stroke-linejoin:miter;stroke-opacity:1"
     id="rect4185"
     width="9972.7793"
     height="9486.3027"
     x="14.709618"
     y="14.441175"
     rx="6.1361461"
     ry="8.8455696" /><path
     transform="translate(2327.4468,2009.6005)"
     style="opacity:1;fill:#000000;fill-opacity:0.0777027;stroke:none;stroke-width:18.38680077;fill-rule:evenodd;stroke-opacity:0.08038585"
     d="M 3154,63 13,3476 l 444,421 -329,349 5986.9235,5857.924 3358,-3683.0002 z"
     id="polygon10"
     inkscape:connector-curvature="0"
     sodipodi:nodetypes="ccccccc" /><path
     style="fill:#ffffff;stroke:#ffffff;stroke-width:18.38680077"
     d="m 5414.4468,3146.6005 c 580.1789,-3.4754 1083.5349,384.9437 1399.9466,844.368 484.2143,699.5929 679.1309,1565.0287 682.0534,2406.632 l -819,0 c -17.7094,-108.5798 23.8459,-301.9834 -61.8516,-356 l -1458.1484,0 0,-466 c 0,0 910.4153,206.0837 1286.474,0 20.5253,-11.2481 42.1223,-36.1847 37.7824,-59.184 -79.9411,-423.6437 -578.9036,-753.8206 -1045.3633,-761.5749 -506.0404,-14.7261 -928.6459,378.9887 -1116.3381,822.2741 -114.1417,257.2977 -168.6058,539.4645 -168.555,820.4848 l -819,0 819,0 -819,0 c 0.9475,-188.5289 11.3897,-378.7102 32.5296,-568.1555 81.2323,-727.961 320.4223,-1445.0556 785.827,-2015.7748 310.3192,-376.4373 761.4583,-670.8593 1263.6434,-667.0697 z m 1263,3251 819,0 z"
     id="path12"
     inkscape:connector-curvature="0"
     sodipodi:nodetypes="cccccccaaccccccsccccc" /><path
     style="fill:#ffcc00;stroke:#ffcc00;stroke-width:0.62499243"
     d="m 183.97656,68.695312 -61.72851,50.613278 -42.726566,67.16602 1.257813,0.95312 c 2.485998,-0.52661 3.549626,-0.74314 5.470703,-1.14648 l 0,11.11914 c -2.752029,1.90868 -4.395649,5.04345 -4.400391,8.39258 -7.13e-4,5.65074 4.579731,10.23205 10.230469,10.23242 5.651503,7.1e-4 10.233132,-4.58092 10.232422,-10.23242 -0.002,-3.35259 -1.64553,-6.4917 -4.400391,-8.40235 l 0,-13.5371 c 4.729361,-0.96454 5.269111,-1.06008 9.921871,-2.19922 -0.69878,5.36182 1.6987,10.35935 4.70899,14.63086 l 1.43845,1.58807 2.31936,-5.45331 c 2.122,-3.48405 5.02102,-6.86186 8.79297,-8.57226 12.89527,-3.93279 26.6909,0.79666 37.79492,7.51757 0.7431,0.62179 -1.09388,-7.03715 -1.61133,-10.41992 -3.38901,-20.62115 2.44387,-43.24364 17.72852,-57.95312 6.95521,-7.29248 17.11632,-10.59533 27.03125,-10.55078 -2.95424,-2.51574 -6.31225,-5.20636 -9.85547,-7.17188 -6.51782,-3.21052 -14.39985,-3.28348 -21.72852,-3.45898 -1.76565,0.22736 -3.52979,0.47946 -5.29492,0.74414 l 17.16407,-32.091799 -0.0352,-0.03516 z"
     transform="matrix(29.419235,0,0,29.419238,0,-0.35597925)"
     id="path14"
     inkscape:connector-curvature="0"
     sodipodi:nodetypes="cccccccccccccccccccccccccc" /></svg>